<?xml version="1.0" encoding="UTF-8" standalone="no"?>
<svg
   xmlns:dc="http://purl.org/dc/elements/1.1/"
   xmlns:cc="http://creativecommons.org/ns#"
   xmlns:rdf="http://www.w3.org/1999/02/22-rdf-syntax-ns#"
   xmlns:svg="http://www.w3.org/2000/svg"
   xmlns="http://www.w3.org/2000/svg"
   xmlns:sodipodi="http://sodipodi.sourceforge.net/DTD/sodipodi-0.dtd"
   xmlns:inkscape="http://www.inkscape.org/namespaces/inkscape"
   width="999.99994"
   height="394.67175"
   id="svg2"
   sodipodi:version="0.32"
   inkscape:version="1.0.2 (e86c870879, 2021-01-15)"
   version="1.0"
   inkscape:output_extension="org.inkscape.output.svg.inkscape"
   sodipodi:docname="Rai_Gulp_2007.svg">
  <metadata
     id="metadata6352">
    <rdf:RDF>
      <cc:Work
         rdf:about="">
        <dc:format>image/svg+xml</dc:format>
        <dc:type
           rdf:resource="http://purl.org/dc/dcmitype/StillImage" />
        <dc:title></dc:title>
      </cc:Work>
    </rdf:RDF>
  </metadata>
  <defs
     id="defs6350">
	
	
	
	
	
	
</defs>
  <sodipodi:namedview
     pagecolor="#ffffff"
     bordercolor="#666666"
     borderopacity="1"
     objecttolerance="10"
     gridtolerance="10"
     guidetolerance="10"
     inkscape:pageopacity="0"
     inkscape:pageshadow="2"
     inkscape:window-width="1366"
     inkscape:window-height="705"
     id="namedview6348"
     showgrid="false"
     inkscape:zoom="0.35355339"
     inkscape:cx="810.13387"
     inkscape:cy="159.18274"
     inkscape:window-x="-8"
     inkscape:window-y="-8"
     inkscape:window-maximized="1"
     inkscape:current-layer="layer1"
     inkscape:document-rotation="0" />
  <g
     inkscape:label="Layer 1"
     inkscape:groupmode="layer"
     id="layer1"
     transform="translate(-151.61583,-38.095281)">
    <g
       id="g393"
       style="fill:#ff0000"
       transform="matrix(1.0603107,0,0,1.0603107,-418.93882,-319.83892)" />
    <g
       id="g488">
      <g
         id="g19"
         transform="matrix(0.63980604,0,0,0.63980604,54.611103,13.721945)"
         style="fill:#1f438f;fill-opacity:1">
        <path
           style="fill:#1f438f;fill-opacity:1;fill-rule:nonzero;stroke:none"
           d="m 191.62105,261.5632 h 3.87428 c 13.05937,0 27.75117,-2.45951 27.75117,-19.19728 0,-16.73777 -14.6918,-19.17552 -27.75117,-19.17552 h -3.87428 z m 87.97664,84.92945 h -49.79974 l -37.78513,-59.20249 h -0.39177 v 59.20249 H 151.61583 V 192.56618 h 59.81193 c 30.40657,0 53.47813,14.49589 53.47813,47.36199 0,21.22148 -11.86225,39.59167 -33.69318,43.46596 l 48.38498,63.09852"
           id="path3415"
           inkscape:connector-curvature="0" />
        <path
           style="fill:#1f438f;fill-opacity:1;fill-rule:nonzero;stroke:none"
           d="m 314.37959,294.21164 c 0,13.27703 8.77156,23.4851 23.87689,23.4851 15.10534,0 23.89865,-10.20807 23.89865,-23.4851 0,-12.86349 -8.79331,-23.681 -23.89865,-23.681 -15.10533,0 -23.87689,10.81751 -23.87689,23.681 z m 83.68883,52.25926 h -37.15391 v -11.62286 h -0.3918 c -6.52968,10.40398 -19.41494,15.0836 -31.64721,15.0836 -31.01602,0 -52.8687,-25.90111 -52.8687,-55.91589 0,-30.01481 21.43914,-55.74177 52.45515,-55.74177 12.05816,0 24.70398,4.50549 32.45256,13.69058 v -10.20807 h 37.15391 V 346.4709"
           id="path3419"
           inkscape:connector-curvature="0" />
        <path
           style="fill:#1f438f;fill-opacity:1;fill-rule:nonzero;stroke:none"
           d="m 461.49301,201.53361 c 0,11.42695 -9.381,20.80794 -20.80794,20.80794 -11.44873,0 -20.8297,-9.38099 -20.8297,-20.80794 0,-11.42695 9.38097,-20.8297 20.8297,-20.8297 11.42694,0 20.80794,9.40275 20.80794,20.8297 z M 459.25115,346.4709 H 422.09723 V 241.75649 h 37.15392 z"
           id="path3423"
           inkscape:connector-curvature="0" />
      </g>
      <g
         id="g225"
         style="fill:#1f438f;fill-opacity:1"
         transform="matrix(0.63978013,0,0,0.63978013,54.615034,13.722678)">
        <g
           id="g195"
           style="fill:#1f438f;fill-opacity:1">
          <path
             style="fill:#1f438f;fill-opacity:1;fill-rule:nonzero;stroke:none;stroke-width:1.00004"
             d="M 843.20537,654.9818 V 346.57133 H 534.75136 l -0.0216,6.85645 c 0,0 42.09651,5.55048 83.34417,32.14924 32.01862,20.65645 48.60475,44.94796 60.77224,55.76594 12.18929,10.83973 6.81294,12.34164 44.29497,25.641 51.08613,18.13157 24.68327,8.42368 33.65111,11.71042 8.96784,3.30852 15.5631,4.83218 19.02399,11.68865 2.24195,4.37508 2.13312,10.20851 0.89242,15.6284 -1.26246,5.44162 -5.2675,14.5836 -3.7221,19.28516 1.56722,4.67981 4.65807,10.12146 10.8833,13.27761 6.247,3.13438 11.62335,5.89874 11.23154,11.44922 -0.17404,2.54669 -2.08959,7.90125 -0.47885,11.66687 1.58896,3.76562 4.24447,1.6325 6.94352,2.72083 2.67731,1.08832 6.7041,2.69906 7.22651,9.16371 0.5224,6.44292 -0.19589,3.17793 -1.48013,9.07667 -1.02303,4.8104 -0.0435,7.64008 3.13438,12.55931 3.93976,6.05111 9.14197,4.24447 17.21736,22.13659 7.70536,17.08676 9.12019,27.94827 8.70664,37.6344 h 6.83469"
             id="path3431"
             inkscape:connector-curvature="0" />
        </g>
        <path
           style="fill:#1f438f;fill-opacity:1;fill-rule:nonzero;stroke:none;stroke-width:1.00004"
           d="M 1151.6158,346.57133 H 843.20537 V 38.11728 l 6.85645,-0.022 c 0,0 5.55048,42.0965 32.14924,83.3442 20.65645,32.01863 44.94796,48.60476 55.76594,60.77225 10.83973,12.18929 12.34164,6.81294 25.641,44.29497 18.13157,51.08613 8.42368,24.68327 11.71042,33.65111 3.30852,8.96784 4.83218,15.5631 11.68865,19.02399 4.37508,2.24195 10.20851,2.13312 15.62843,0.89242 5.4416,-1.26246 14.5836,-5.2675 19.2851,-3.7221 4.6798,1.56722 10.1215,4.65807 13.2776,10.8833 3.1344,6.247 5.8988,11.62335 11.4492,11.23154 2.5467,-0.17404 7.9013,-2.08959 11.6669,-0.47885 3.7656,1.58896 1.6325,4.24447 2.7208,6.94352 1.0884,2.67731 2.6991,6.7041 9.1637,7.22651 6.443,0.5224 3.178,-0.19589 9.0767,-1.48013 4.8104,-1.02303 7.6401,-0.0435 12.5593,3.13438 6.0511,3.93976 4.2445,9.14197 22.1366,17.21736 17.0868,7.70536 27.9483,9.12019 37.6344,8.70664 v 6.83469"
           id="path3431-6"
           inkscape:connector-curvature="0" />
      </g>
      <g
         id="g339"
         transform="matrix(1.006009,0,0,1.006009,145.60679,28.738861)"
         style="fill:#1f438f;fill-opacity:1">
		<path
   fill="#1f438f"
   d="m 791.101,150.77 c -0.259,14.281 -1.297,26.484 -9.996,38.688 -9.606,13.373 -24.019,19.215 -40.376,19.215 -30.77,0 -52.19,-20.903 -52.19,-51.671 0,-31.808 21.552,-52.709 53.1,-52.709 20.122,0 35.702,9.087 44.141,27.393 l -24.147,10.126 c -3.506,-9.347 -10.906,-15.579 -21.162,-15.579 -16.748,0 -25.446,15.968 -25.446,30.898 0,15.19 9.088,30.638 25.836,30.638 11.035,0 19.474,-5.711 20.513,-17.006 H 740.602 V 150.77 Z"
   id="path331"
   style="fill:#1f438f;fill-opacity:1" />

		<path
   fill="#1f438f"
   d="m 824.211,138.825 v 35.573 c 0,8.439 2.078,14.411 11.814,14.411 9.738,0 11.814,-5.972 11.814,-14.411 v -35.573 h 23.629 v 40.117 c 0,21.941 -15.45,28.692 -35.443,28.692 -19.993,0 -35.442,-6.751 -35.442,-28.692 v -40.117 z"
   id="path333"
   style="fill:#1f438f;fill-opacity:1" />

		<path
   fill="#1f438f"
   d="M 908.862,205.426 H 885.234 V 97.67 h 23.628 z"
   id="path335"
   style="fill:#1f438f;fill-opacity:1" />

		<path
   fill="#1f438f"
   d="m 945.992,146.354 h 0.26 c 4.285,-6.62 12.334,-9.736 20.124,-9.736 19.862,0 33.624,16.618 33.624,35.702 0,19.215 -13.631,35.313 -33.365,35.313 -7.66,0 -15.579,-2.727 -20.643,-8.569 v 39.597 h -23.628 v -99.836 h 23.628 z m -0.778,25.837 c 0,8.438 5.582,14.93 15.189,14.93 9.607,0 15.189,-6.491 15.189,-14.93 0,-8.179 -5.582,-15.06 -15.189,-15.06 -9.607,0 -15.189,6.881 -15.189,15.06 z"
   id="path337"
   style="fill:#1f438f;fill-opacity:1" />

	</g>
    </g>
  </g>
</svg>
